<svg xmlns="http://www.w3.org/2000/svg" width="512" height="512" fill-rule="evenodd" clip-rule="evenodd" image-rendering="optimizeQuality" shape-rendering="geometricPrecision" text-rendering="geometricPrecision" viewBox="0 0 512 512" id="administrator">
  <path fill="#474748" fill-rule="nonzero" d="M368 309c3,-1 6,1 7,4 1,3 -1,6 -4,7 -9,3 -18,5 -28,6 -9,1 -19,2 -29,2 -11,0 -21,-1 -31,-2 -10,-1 -20,-4 -29,-6 -3,-1 -5,-5 -4,-8 1,-3 4,-5 8,-4 8,3 17,5 27,6 9,1 19,2 29,2 9,0 19,0 27,-2 10,-1 19,-3 27,-5z"></path>
  <path fill="#474748" d="M424 104c3,20 0,42 -14,67 -2,3 -1,6 1,8 38,37 -7,55 -7,56 -2,0 -3,2 -3,4 -3,15 -7,26 -12,35 -6,13 -13,20 -17,24 -2,2 -4,4 -5,7l0 0c-2,2 -3,5 -3,8 -1,3 1,6 4,7 3,1 7,-1 7,-4 1,-2 2,-4 2,-6l0 0 0 0c1,-1 2,-2 3,-3 5,-4 13,-13 20,-28 5,-9 9,-20 12,-35 11,-6 50,-29 10,-71 38,-72 -1,-124 -50,-151 -16,-9 -33,-15 -48,-18 -16,-4 -31,-4 -42,-2 -14,3 -23,11 -23,23 -117,13 -67,126 -56,148 -40,42 -1,65 11,71 3,14 7,26 11,35 7,14 15,23 21,28 0,1 1,2 2,3 1,2 1,3 2,5 1,4 4,6 7,5 4,-1 5,-4 5,-8 -1,-2 -2,-5 -4,-8 -1,-2 -3,-4 -4,-6 -5,-4 -12,-12 -18,-24 -4,-9 -8,-20 -11,-35 -1,-2 -2,-4 -4,-4 -1,-1 -45,-20 -6,-56 1,-1 1,-2 1,-3l0 -1 0 0 0 0 0 0 0 0 1 0 0 0 0 0 0 0 0 0 0 0 0 0 0 0 0 0 0 0 0 -1 0 0 0 0 0 0 0 0 0 0c0,0 0,-1 -1,-1l0 0c0,-4 -10,-62 39,-89 21,46 66,32 107,20 28,-9 54,-16 62,0z"></path>
  <path fill="#474748" d="M369 316c-16 4-38 6-55 6-19 0-41-2-57-6-1 1-2 2-3 3 0 3 0 5 0 8-1 5-3 9-6 11-5 4-10 7-14 9 46 9 111 9 157 1-3-2-7-5-11-8l-3-2c-3-2-4-6-5-11 0-2 0-5 0-7-2-1-3-2-3-4zM313 360c-15 0-29-1-42-2l42 44 41-44c-13 1-27 2-41 2z"></path>
  <path fill="#00afef" d="M308 406l-46 -49c-11,-1 -22,-3 -31,-5 -6,3 -12,5 -21,8l-7 3 40 97 28 -23 0 0 0 -1 37 -30z"></path>
  <path fill="#474748" d="M239 466l-41 -101 -1 0c-78,29 -79,72 -79,75l0 1 0 64 170 0 -5 -48 -10 -14 -29 24c0,0 -1,1 -1,1 -2,0 -3,0 -4,-2z"></path>
  <polygon fill="#00afef" points="313 410 277 439 287 452 313 452 338 452 348 439"></polygon>
  <polygon fill="#00afef" points="313 458 289 458 294 505 331 505 336 458"></polygon>
  <path fill="#00afef" d="M317 406l37 30 0 1 0 0 28 23 40 -97 -6 -2c-11,-4 -17,-6 -22,-9 -9,2 -20,4 -31,5l-46 49z"></path>
  <path fill="#474748" d="M508 441l0 0zm-80 -76l-41 101c-1,2 -3,2 -4,2 -1,0 -1,-1 -1,-1l-29 -24 -11 14 -5 48 171 0 0 -64 0 0c0,0 2,-46 -80,-76z"></path>
  <path fill="#00afef" d="M121 207c4,2 8,4 12,6 3,2 7,4 10,7l18 -10c3,-2 7,-1 8,2l0 0 21 35c1,3 0,6 -3,8 0,0 0,0 0,0l-18 10c1,2 1,3 1,4 0,3 0,6 0,9 0,3 0,6 0,9 0,1 0,2 -1,4l18 10c3,2 4,5 3,8l0 0 0 0 -21 35c-1,3 -5,4 -8,2 0,0 0,0 0,0l-18 -10c-3,3 -7,5 -10,7 -4,2 -8,4 -12,6l0 20c0,4 -2,6 -6,6l-40 0c-3,0 -6,-2 -6,-6l0 -20c-4,-2 -8,-4 -11,-6 -4,-2 -8,-4 -11,-7l-18 10c-3,2 -6,1 -8,-2l0 0 -20 -35c-2,-2 -1,-6 2,-8 0,0 0,0 0,0l18 -10c0,-2 0,-3 -1,-4 0,-3 0,-6 0,-9 0,-3 0,-6 0,-9 1,-1 1,-2 1,-4l-18 -10c-3,-2 -4,-5 -2,-8l0 0 0 0 20 -35c2,-3 5,-4 8,-2 0,0 0,0 0,0l18 10c3,-3 7,-5 11,-7 3,-2 7,-4 11,-6l0 -20c0,-4 3,-6 6,-6l40 0c4,0 6,2 6,6l0 20zm-2 47c-6,-6 -15,-10 -24,-10 -9,0 -18,4 -24,10 -6,6 -10,15 -10,24 0,9 4,18 10,24 6,6 15,10 24,10 9,0 18,-4 24,-10 6,-6 10,-15 10,-24 0,-9 -4,-18 -10,-24z"></path>
</svg>
